<svg xmlns:xlink="http://www.w3.org/1999/xlink" xmlns="http://www.w3.org/2000/svg" width="297" height="63" viewBox="0 0 297 63"><g id="Shape Divider Seta"><script xmlns=""/><path id="shape" d="M149.708 63C77.7629 62.9998 92.8629 9.96622e-06 10.4806 2.76412e-06C-71.9018 -4.43797e-06 360.66 3.05268e-05 288.936 2.71075e-05C217.213 2.36882e-05 221.654 63.0001 149.708 63Z"/><path id="seta" d="M147.586 33.4142C148.367 34.1953 149.633 34.1953 150.414 33.4142L163.142 20.6863C163.923 19.9052 163.923 18.6389 163.142 17.8579C162.361 17.0768 161.095 17.0768 160.314 17.8579L149 29.1716L137.686 17.8579C136.905 17.0768 135.639 17.0768 134.858 17.8579C134.077 18.6389 134.077 19.9052 134.858 20.6863L147.586 33.4142ZM147 31L147 32L151 32L151 31L147 31Z" fill="white"/></g></svg>
